# File created by Blade
# Date/Time:  Thu Sep 25 19:04:16 2014
# Frame Rate: 120.000 fps
#------------------------------------------------------
:FULLY-SPECIFIED
:DEGREES
1700
root 6.543557 17.789365 -9.265010 34.401648 34.398979 -16.353863
Spine 18.342473 -3.910654 -32.333697
Head -32.183331 -34.705608 19.771400
LeftShoulder -2.768523 8.248553 19.680583
LeftArm 27.563715 4.562328 -40.836350
LeftForeArm 10.183087 -0.000000 22.580249
LeftHand -27.318189 0.000000 20.362332
LeftHandThumb1 -26.253704 0.000000 33.147579
RightShoulder -17.874984 21.185799 -39.735294
RightArm -5.246498 6.741399 27.829310
RightForeArm -15.904124 -0.000000 12.243276
RightHand -17.382545 0.000000 -19.210556
RightHandThumb1 -24.326973 -0.000000 -32.862282
LeftUpLeg -131.478137 36.422169 -2.317152
LeftLeg 102.770684 -0.000000 -0.000000
LeftFoot -17.534765 -23.801367 -15.457142
LeftToeBase 1.523201 -0.000000 -0.000000
RightUpLeg -15.719220 -44.821128 -24.849100
RightLeg 5.789195 -0.000000 -0.000000
RightFoot -2.090211 -17.388100 45.478589
RightToeBase 5.777656 -0.000000 -0.000000
1701
root 6.523436 17.824190 -9.300566 34.776726 34.680243 -16.130140
Spine 18.304991 -3.720834 -31.722313
Head -32.816371 -34.410556 20.104130
LeftShoulder -2.699941 8.055454 19.670009
LeftArm 27.788866 4.684414 -40.651263
LeftForeArm 10.419391 -0.000000 22.859747
LeftHand -26.069514 -0.000000 18.289251
LeftHandThumb1 -26.253704 0.000000 33.147579
RightShoulder -17.747329 21.254676 -39.558053
RightArm -4.593264 6.298243 28.848639
RightForeArm -15.452891 -0.000000 12.190734
RightHand -17.143659 -0.000000 -19.138640
RightHandThumb1 -24.326973 -0.000000 -32.862282
LeftUpLeg -131.851965 36.004696 -2.782848
LeftLeg 102.529850 -0.000000 -0.000000
LeftFoot -17.259770 -23.869591 -15.626365
LeftToeBase 1.741143 -0.000000 -0.000000
RightUpLeg -15.850474 -44.907778 -24.793320
RightLeg 5.794271 -0.000000 -0.000000
RightFoot -2.259233 -17.595694 45.464166
RightToeBase 5.817148 -0.000000 -0.000000
1702
root 6.503050 17.856663 -9.334072 35.106994 34.996787 -15.930233
Spine 18.301117 -3.559491 -31.057361
Head -33.505129 -34.112987 20.424191
LeftShoulder -2.636857 7.814727 19.675096
LeftArm 27.921980 4.666577 -40.617627
LeftForeArm 10.989321 -0.000000 23.141818
LeftHand -24.726109 -0.000000 16.036385
LeftHandThumb1 -26.253704 0.000000 33.147579
RightShoulder -17.543723 21.382955 -39.410731
RightArm -4.009336 5.826647 29.886500
RightForeArm -15.540184 -0.000000 12.195216
RightHand -17.033089 0.000000 -18.664813
RightHandThumb1 -24.326973 -0.000000 -32.862282
LeftUpLeg -132.144308 35.618726 -3.126386
LeftLeg 102.202842 -0.000000 -0.000000
LeftFoot -16.990845 -24.138426 -15.618654
LeftToeBase 1.877004 -0.000000 -0.000000
RightUpLeg -15.927919 -45.056994 -24.720767
RightLeg 5.783940 -0.000000 -0.000000
RightFoot -2.411360 -17.792437 45.398205
RightToeBase 5.919916 -0.000000 -0.000000
1703
root 6.481738 17.888709 -9.363572 35.420489 35.314741 -15.765618
Spine 18.281538 -3.389785 -30.328738
Head -34.195783 -33.831725 20.635983
LeftShoulder -2.573303 7.589136 19.617142
LeftArm 27.985435 4.962705 -40.288285
LeftForeArm 11.515425 -0.000000 23.608137
LeftHand -24.026018 0.000000 13.708738
LeftHandThumb1 -26.253704 0.000000 33.147579
RightShoulder -17.325952 21.706593 -39.378216
RightArm -3.572613 5.276389 30.985733
RightForeArm -15.522606 -0.000000 12.255244
RightHand -16.891031 -0.000000 -18.456199
RightHandThumb1 -24.326973 -0.000000 -32.862282
LeftUpLeg -132.518345 35.149148 -3.612608
LeftLeg 101.943404 -0.000000 -0.000000
LeftFoot -17.137620 -23.858901 -14.948016
LeftToeBase 1.732494 -0.000000 -0.000000
RightUpLeg -16.011113 -45.234293 -24.595904
RightLeg 5.742245 -0.000000 -0.000000
RightFoot -2.508065 -17.942642 45.406611
RightToeBase 5.887857 -0.000000 -0.000000
1704
root 6.462027 17.919146 -9.395284 35.760460 35.627584 -15.552588
Spine 18.283111 -3.194708 -29.625853
Head -34.987355 -33.546758 20.929912
LeftShoulder -2.530962 7.284356 19.593152
LeftArm 28.028578 5.310869 -39.927514
LeftForeArm 12.001526 -0.000000 24.098209
LeftHand -23.028072 0.000000 11.325324
LeftHandThumb1 -26.253704 0.000000 33.147579
RightShoulder -17.245248 21.900916 -39.285788
RightArm -2.835516 4.661050 32.128266
RightForeArm -15.389376 0.000000 12.202117
RightHand -16.657540 -0.000000 -18.182856
RightHandThumb1 -24.326973 -0.000000 -32.862282
LeftUpLeg -132.852520 34.716398 -4.040754
LeftLeg 101.679877 -0.000000 -0.000000
LeftFoot -16.936858 -23.918657 -14.809743
LeftToeBase 1.704303 -0.000000 -0.000000
RightUpLeg -16.085210 -45.446232 -24.520989
RightLeg 5.714782 -0.000000 -0.000000
RightFoot -2.607774 -18.061376 45.441585
RightToeBase 5.913228 -0.000000 -0.000000
1705
root 6.443997 17.947126 -9.425308 36.052494 35.926549 -15.354301
Spine 18.318036 -2.992473 -28.918708
Head -35.811757 -33.207987 21.233074
LeftShoulder -2.534591 7.034576 19.527121
LeftArm 28.070043 6.187990 -39.082688
LeftForeArm 11.934997 -0.000000 24.770646
LeftHand -22.446227 0.000000 9.841311
LeftHandThumb1 -26.253704 0.000000 33.147579
RightShoulder -17.187275 21.987306 -39.112392
RightArm -1.853422 4.121725 33.278042
RightForeArm -15.309973 -0.000000 12.066825
RightHand -16.369341 -0.000000 -17.725676
RightHandThumb1 -24.326973 -0.000000 -32.862282
LeftUpLeg -133.136761 34.315823 -4.419744
LeftLeg 101.433707 -0.000000 -0.000000
LeftFoot -16.829775 -23.991829 -14.569188
LeftToeBase 1.885103 -0.000000 -0.000000
RightUpLeg -16.137035 -45.717731 -24.444139
RightLeg 5.682373 -0.000000 -0.000000
RightFoot -2.638462 -18.109473 45.416519
RightToeBase 5.933501 -0.000000 -0.000000
1706
root 6.426557 17.972134 -9.454474 36.329926 36.206820 -15.182375
Spine 18.304836 -2.770594 -28.200538
Head -36.543774 -32.908376 21.522065
LeftShoulder -2.530717 6.844674 19.642324
LeftArm 28.258024 6.043167 -39.248033
LeftForeArm 13.215177 -0.000000 24.952434
LeftHand -21.848726 -0.000000 8.490512
LeftHandThumb1 -26.253704 0.000000 33.147579
RightShoulder -17.007278 22.192944 -38.866129
RightArm -1.017349 3.565327 34.348283
RightForeArm -15.324703 -0.000000 12.080941
RightHand -16.278737 0.000000 -17.656199
RightHandThumb1 -24.326973 -0.000000 -32.862282
LeftUpLeg -133.431969 33.952882 -4.797421
LeftLeg 101.203721 -0.000000 -0.000000
LeftFoot -16.532703 -24.136615 -14.547319
LeftToeBase 1.486180 -0.000000 -0.000000
RightUpLeg -16.200239 -45.991391 -24.347133
RightLeg 5.640907 -0.000000 -0.000000
RightFoot -2.631853 -18.170350 45.377368
RightToeBase 5.970060 -0.000000 -0.000000
